<svg width="2400" height="2000" viewBox="0 0 2400 2000" fill="none" xmlns="http://www.w3.org/2000/svg">
<path d="M200 0C89.551 0 0 89.551 0 200C0 310.449 89.551 400 200 400C310.449 400 400 310.449 400 200C400 89.551 310.449 0 200 0ZM200 380.408C100.367 380.408 19.5918 299.633 19.5918 200C19.5918 100.367 100.367 19.5918 200 19.5918C299.633 19.5918 380.408 100.367 380.408 200C380.408 299.633 299.633 380.408 200 380.408ZM308.98 207.755L309.061 204.041H375.837C375.918 202.694 376 201.347 376 200C376 198.653 375.918 197.306 375.837 195.959H309.061L308.98 192.286C308.449 163.429 304.98 135.918 298.653 110.449L297.837 107.102L301.102 106C317.061 100.531 329.143 94.6531 337.224 90.1633C335.469 88 333.673 85.8776 331.837 83.7959C322.163 89.102 311.265 93.8367 299.347 97.9592L295.673 99.2245L294.531 95.5102C287.796 73.3878 279.102 54.1224 268.612 38.1633C263.918 36.1633 259.102 34.3673 254.204 32.7755C267.224 49.3878 278.245 71.6735 286.367 98.0408L287.51 101.755L283.796 102.776C260.612 109.184 235.102 112.694 207.918 113.306L204.082 113.388V24.2041C202.735 24.1225 201.429 24 200.041 24C198.653 24 197.347 24.0816 196 24.2041V113.347L192.163 113.265C165.061 112.653 139.551 109.102 116.327 102.653L112.571 101.633L113.714 97.9184C121.878 71.551 132.857 49.3061 145.878 32.7347C140.98 34.3265 136.163 36.0816 131.469 38.1224C120.98 54.0408 112.286 73.2653 105.551 95.3878L104.408 99.1429L100.735 97.8367C88.8571 93.7143 77.9592 88.9796 68.2857 83.6735C66.449 85.7959 64.6122 87.9184 62.8571 90.1225C70.9388 94.6531 83.0204 100.531 98.9796 105.959L102.245 107.061L101.429 110.408C95.102 135.837 91.6327 163.388 91.0612 192.245L90.9796 195.918H24.1633C24.0816 197.265 24 198.612 24 199.959C24 201.306 24.0816 202.694 24.1633 204H90.898L90.9796 207.714C91.5102 236.816 95.0612 264.612 101.469 290.286L102.327 293.633L99.0612 294.735C83.2653 300.122 71.2653 305.918 63.2245 310.408C64.9796 312.571 66.7755 314.694 68.6122 316.776C78.2041 311.551 89.0612 306.857 100.857 302.776L104.531 301.51L105.673 305.224C112.367 327.061 121.02 346.122 131.388 361.878C136.082 363.878 140.898 365.673 145.796 367.265C132.898 350.816 121.959 328.816 113.837 302.735L112.653 299.02L116.408 298C139.51 291.633 164.98 288.122 192.041 287.551L195.878 287.469V375.837C197.224 375.918 198.571 376 199.918 376C201.265 376 202.612 375.918 203.959 375.837V287.429L207.796 287.51C234.775 288.122 260.204 291.633 283.388 298.041L287.143 299.061L286 302.776C277.878 328.816 266.939 350.816 254.082 367.265C258.98 365.673 263.796 363.878 268.49 361.878C278.857 346.122 287.51 327.102 294.204 305.306L295.347 301.592L299.02 302.857C310.775 306.939 321.592 311.633 331.224 316.816C333.102 314.694 334.939 312.571 336.694 310.408C328.612 305.918 316.653 300.122 300.857 294.735L297.592 293.633L298.449 290.286C304.898 264.653 308.449 236.857 308.98 207.755ZM195.959 279.347L192.286 279.429C164.286 280 138.041 283.592 114.245 290.122L110.531 291.143L109.592 287.429C103.184 262.286 99.6735 235.51 99.102 207.878L99.0204 204.041H195.959V279.347ZM195.959 195.959H99.0204L99.102 192.122C99.6735 164.776 103.143 138.245 109.388 113.306L110.327 109.592L114.041 110.612C137.878 117.184 164.204 120.816 192.286 121.388L195.959 121.469V195.959ZM204.041 121.429L207.714 121.347C235.755 120.776 262.082 117.184 285.959 110.571L289.673 109.551L290.612 113.265C296.857 138.204 300.327 164.694 300.898 192.082L300.98 195.918H204.041V121.429ZM290.408 287.429L289.469 291.143L285.755 290.122C261.959 283.592 235.714 280 207.714 279.429L204.041 279.347V204.041H300.98L300.898 207.878C300.327 235.51 296.816 262.286 290.408 287.429Z" transform="translate(874 708) scale(2)" fill="#424243"/>
<path d="M855.3 277.3C856.8 266.7 857.5 255.8 857.5 245C857.5 109.9 747.6 0 612.5 0C534.1 0 462.2 37 416.6 97.7C400.5 93.8 384.1 91.8 367.5 91.8C249.3 91.8 153.1 188 153.1 306.2C153.1 309.2 153.2 312.1 153.3 315.1C64.7 341.4 0 423.6 0 520.6C0 638.8 96.2 735 214.4 735H735C870.1 735 980 625.1 980 490C980 400.7 930.9 320 855.3 277.3ZM735 693.8H214.4C129.8 693.8 46 605.2 46 520.6C46 436 115.4 347.5 200 347.5C204.7 347.5 200 332.5 200 321.5C200 302.5 200 309.3 200 287C200 202.4 282.9 133.2 367.5 133.2C395.1 133.2 420.7 141.1 443.1 153.9C470.9 87.7 536.2 41.3 612.5 41.3C714 41.3 818.5 143.4 818.5 245C818.5 269.2 814 285 805.5 306.2C883.7 327.4 937.5 405.2 937.5 490C937.5 591.4 836.5 693.8 735 693.8Z" transform="translate(220 266) scale(2)" fill="#424243"/>
</svg>
